<mxfile host="app.diagrams.net" modified="2021-01-26T06:57:15.590Z" agent="5.0 (X11; Linux x86_64) AppleWebKit/537.36 (KHTML, like Gecko) Chrome/83.0.4103.61 Safari/537.36" etag="iQcPLa2X2zaodghmoQTc" version="14.2.7" type="github">
  <diagram id="kIHqwGlhqWqu5CDYIjrJ" name="Page-1">
    <mxGraphModel dx="3011" dy="809" grid="1" gridSize="10" guides="1" tooltips="1" connect="1" arrows="1" fold="1" page="1" pageScale="1" pageWidth="827" pageHeight="1169" math="0" shadow="0">
      <root>
        <mxCell id="0" />
        <mxCell id="1" parent="0" />
        <mxCell id="nO3CZiCc7D_mRMo5f33q-48" value="" style="rounded=0;whiteSpace=wrap;html=1;" parent="1" vertex="1">
          <mxGeometry x="120" y="290" width="150" height="110" as="geometry" />
        </mxCell>
        <mxCell id="nO3CZiCc7D_mRMo5f33q-93" style="edgeStyle=orthogonalEdgeStyle;rounded=0;orthogonalLoop=1;jettySize=auto;html=1;entryX=0.5;entryY=0;entryDx=0;entryDy=0;" parent="1" source="nO3CZiCc7D_mRMo5f33q-1" target="nO3CZiCc7D_mRMo5f33q-4" edge="1">
          <mxGeometry relative="1" as="geometry" />
        </mxCell>
        <mxCell id="nO3CZiCc7D_mRMo5f33q-1" value="开始" style="rounded=0;whiteSpace=wrap;html=1;" parent="1" vertex="1">
          <mxGeometry x="140" y="20" width="110" height="50" as="geometry" />
        </mxCell>
        <mxCell id="nO3CZiCc7D_mRMo5f33q-94" style="edgeStyle=orthogonalEdgeStyle;rounded=0;orthogonalLoop=1;jettySize=auto;html=1;entryX=0.5;entryY=0;entryDx=0;entryDy=0;" parent="1" source="nO3CZiCc7D_mRMo5f33q-4" target="nO3CZiCc7D_mRMo5f33q-5" edge="1">
          <mxGeometry relative="1" as="geometry" />
        </mxCell>
        <mxCell id="nO3CZiCc7D_mRMo5f33q-4" value="数据输入" style="rounded=0;whiteSpace=wrap;html=1;" parent="1" vertex="1">
          <mxGeometry x="140" y="90" width="110" height="40" as="geometry" />
        </mxCell>
        <mxCell id="nO3CZiCc7D_mRMo5f33q-92" style="edgeStyle=orthogonalEdgeStyle;rounded=0;orthogonalLoop=1;jettySize=auto;html=1;exitX=0.5;exitY=1;exitDx=0;exitDy=0;entryX=0.5;entryY=0;entryDx=0;entryDy=0;" parent="1" source="nO3CZiCc7D_mRMo5f33q-5" target="nO3CZiCc7D_mRMo5f33q-6" edge="1">
          <mxGeometry relative="1" as="geometry" />
        </mxCell>
        <mxCell id="nO3CZiCc7D_mRMo5f33q-5" value="特征构造" style="rounded=0;whiteSpace=wrap;html=1;" parent="1" vertex="1">
          <mxGeometry x="140" y="160" width="110" height="50" as="geometry" />
        </mxCell>
        <mxCell id="nO3CZiCc7D_mRMo5f33q-58" style="edgeStyle=orthogonalEdgeStyle;rounded=0;orthogonalLoop=1;jettySize=auto;html=1;exitX=0.5;exitY=1;exitDx=0;exitDy=0;entryX=0.5;entryY=0;entryDx=0;entryDy=0;" parent="1" source="nO3CZiCc7D_mRMo5f33q-6" target="nO3CZiCc7D_mRMo5f33q-46" edge="1">
          <mxGeometry relative="1" as="geometry" />
        </mxCell>
        <mxCell id="nO3CZiCc7D_mRMo5f33q-6" value="嵌入编码" style="rounded=0;whiteSpace=wrap;html=1;" parent="1" vertex="1">
          <mxGeometry x="140" y="230" width="110" height="50" as="geometry" />
        </mxCell>
        <mxCell id="nO3CZiCc7D_mRMo5f33q-12" value="" style="edgeStyle=orthogonalEdgeStyle;rounded=0;orthogonalLoop=1;jettySize=auto;html=1;" parent="1" source="nO3CZiCc7D_mRMo5f33q-7" target="nO3CZiCc7D_mRMo5f33q-11" edge="1">
          <mxGeometry relative="1" as="geometry" />
        </mxCell>
        <mxCell id="nO3CZiCc7D_mRMo5f33q-7" value="多用户建模模块" style="rounded=0;whiteSpace=wrap;html=1;" parent="1" vertex="1">
          <mxGeometry x="140" y="420" width="110" height="50" as="geometry" />
        </mxCell>
        <mxCell id="nO3CZiCc7D_mRMo5f33q-14" value="" style="edgeStyle=orthogonalEdgeStyle;rounded=0;orthogonalLoop=1;jettySize=auto;html=1;" parent="1" source="nO3CZiCc7D_mRMo5f33q-11" target="nO3CZiCc7D_mRMo5f33q-13" edge="1">
          <mxGeometry relative="1" as="geometry" />
        </mxCell>
        <mxCell id="nO3CZiCc7D_mRMo5f33q-11" value="用户间路由" style="rounded=0;whiteSpace=wrap;html=1;" parent="1" vertex="1">
          <mxGeometry x="140" y="510" width="110" height="50" as="geometry" />
        </mxCell>
        <mxCell id="nO3CZiCc7D_mRMo5f33q-96" style="edgeStyle=orthogonalEdgeStyle;rounded=0;orthogonalLoop=1;jettySize=auto;html=1;exitX=0.5;exitY=1;exitDx=0;exitDy=0;entryX=0.5;entryY=0;entryDx=0;entryDy=0;" parent="1" source="nO3CZiCc7D_mRMo5f33q-13" target="nO3CZiCc7D_mRMo5f33q-34" edge="1">
          <mxGeometry relative="1" as="geometry" />
        </mxCell>
        <mxCell id="nO3CZiCc7D_mRMo5f33q-13" value="多组全连接层" style="rounded=0;whiteSpace=wrap;html=1;" parent="1" vertex="1">
          <mxGeometry x="140" y="580" width="110" height="40" as="geometry" />
        </mxCell>
        <mxCell id="nO3CZiCc7D_mRMo5f33q-61" value="" style="edgeStyle=orthogonalEdgeStyle;rounded=0;orthogonalLoop=1;jettySize=auto;html=1;" parent="1" source="nO3CZiCc7D_mRMo5f33q-15" target="nO3CZiCc7D_mRMo5f33q-60" edge="1">
          <mxGeometry relative="1" as="geometry" />
        </mxCell>
        <mxCell id="nO3CZiCc7D_mRMo5f33q-15" value="负采样softmax" style="rounded=0;whiteSpace=wrap;html=1;" parent="1" vertex="1">
          <mxGeometry x="140" y="710" width="110" height="50" as="geometry" />
        </mxCell>
        <mxCell id="nO3CZiCc7D_mRMo5f33q-98" style="edgeStyle=orthogonalEdgeStyle;rounded=0;orthogonalLoop=1;jettySize=auto;html=1;exitX=0.5;exitY=1;exitDx=0;exitDy=0;entryX=0.5;entryY=0;entryDx=0;entryDy=0;" parent="1" source="nO3CZiCc7D_mRMo5f33q-34" target="nO3CZiCc7D_mRMo5f33q-15" edge="1">
          <mxGeometry relative="1" as="geometry" />
        </mxCell>
        <mxCell id="nO3CZiCc7D_mRMo5f33q-34" value="注意力模块" style="rounded=0;whiteSpace=wrap;html=1;" parent="1" vertex="1">
          <mxGeometry x="140" y="640" width="110" height="40" as="geometry" />
        </mxCell>
        <mxCell id="nO3CZiCc7D_mRMo5f33q-45" value="用户侧" style="rounded=0;whiteSpace=wrap;html=1;" parent="1" vertex="1">
          <mxGeometry x="140" y="320" width="30" height="60" as="geometry" />
        </mxCell>
        <mxCell id="nO3CZiCc7D_mRMo5f33q-59" value="" style="edgeStyle=orthogonalEdgeStyle;rounded=0;orthogonalLoop=1;jettySize=auto;html=1;" parent="1" source="nO3CZiCc7D_mRMo5f33q-46" target="nO3CZiCc7D_mRMo5f33q-7" edge="1">
          <mxGeometry relative="1" as="geometry" />
        </mxCell>
        <mxCell id="nO3CZiCc7D_mRMo5f33q-46" value="历史序列" style="rounded=0;whiteSpace=wrap;html=1;" parent="1" vertex="1">
          <mxGeometry x="180" y="320" width="30" height="60" as="geometry" />
        </mxCell>
        <mxCell id="nO3CZiCc7D_mRMo5f33q-47" value="候选特征" style="rounded=0;whiteSpace=wrap;html=1;" parent="1" vertex="1">
          <mxGeometry x="220" y="320" width="30" height="60" as="geometry" />
        </mxCell>
        <mxCell id="nO3CZiCc7D_mRMo5f33q-52" value="嵌入特征" style="rounded=0;whiteSpace=wrap;html=1;" parent="1" vertex="1">
          <mxGeometry x="120" y="290" width="60" height="20" as="geometry" />
        </mxCell>
        <mxCell id="nO3CZiCc7D_mRMo5f33q-56" value="" style="edgeStyle=elbowEdgeStyle;elbow=vertical;endArrow=classic;html=1;exitX=0;exitY=0.5;exitDx=0;exitDy=0;entryX=-0.009;entryY=0.64;entryDx=0;entryDy=0;entryPerimeter=0;" parent="1" source="nO3CZiCc7D_mRMo5f33q-45" target="nO3CZiCc7D_mRMo5f33q-11" edge="1">
          <mxGeometry width="50" height="50" relative="1" as="geometry">
            <mxPoint x="50" y="360" as="sourcePoint" />
            <mxPoint x="120" y="630" as="targetPoint" />
            <Array as="points">
              <mxPoint x="90" y="450" />
              <mxPoint x="90" y="530" />
              <mxPoint x="90" y="480" />
              <mxPoint x="50" y="440" />
            </Array>
          </mxGeometry>
        </mxCell>
        <mxCell id="nO3CZiCc7D_mRMo5f33q-57" value="" style="edgeStyle=elbowEdgeStyle;elbow=vertical;endArrow=classic;html=1;entryX=1;entryY=0.5;entryDx=0;entryDy=0;exitX=1;exitY=0.5;exitDx=0;exitDy=0;" parent="1" source="nO3CZiCc7D_mRMo5f33q-47" target="nO3CZiCc7D_mRMo5f33q-34" edge="1">
          <mxGeometry width="50" height="50" relative="1" as="geometry">
            <mxPoint x="310" y="350" as="sourcePoint" />
            <mxPoint x="360" y="560" as="targetPoint" />
            <Array as="points">
              <mxPoint x="330" y="530" />
              <mxPoint x="100" y="540" />
              <mxPoint x="100" y="490" />
              <mxPoint x="60" y="450" />
            </Array>
          </mxGeometry>
        </mxCell>
        <mxCell id="nO3CZiCc7D_mRMo5f33q-60" value="输出物品矩阵" style="rounded=0;whiteSpace=wrap;html=1;" parent="1" vertex="1">
          <mxGeometry x="140" y="780" width="110" height="50" as="geometry" />
        </mxCell>
        <mxCell id="nO3CZiCc7D_mRMo5f33q-62" value="" style="rounded=0;whiteSpace=wrap;html=1;" parent="1" vertex="1">
          <mxGeometry x="490" y="290" width="130" height="100" as="geometry" />
        </mxCell>
        <mxCell id="nO3CZiCc7D_mRMo5f33q-99" style="edgeStyle=orthogonalEdgeStyle;rounded=0;orthogonalLoop=1;jettySize=auto;html=1;entryX=0.5;entryY=0;entryDx=0;entryDy=0;" parent="1" source="nO3CZiCc7D_mRMo5f33q-64" target="nO3CZiCc7D_mRMo5f33q-66" edge="1">
          <mxGeometry relative="1" as="geometry" />
        </mxCell>
        <mxCell id="nO3CZiCc7D_mRMo5f33q-64" value="开始" style="rounded=0;whiteSpace=wrap;html=1;" parent="1" vertex="1">
          <mxGeometry x="510" y="20" width="110" height="50" as="geometry" />
        </mxCell>
        <mxCell id="nO3CZiCc7D_mRMo5f33q-100" style="edgeStyle=orthogonalEdgeStyle;rounded=0;orthogonalLoop=1;jettySize=auto;html=1;exitX=0.5;exitY=1;exitDx=0;exitDy=0;entryX=0.5;entryY=0;entryDx=0;entryDy=0;" parent="1" source="nO3CZiCc7D_mRMo5f33q-66" target="nO3CZiCc7D_mRMo5f33q-67" edge="1">
          <mxGeometry relative="1" as="geometry" />
        </mxCell>
        <mxCell id="nO3CZiCc7D_mRMo5f33q-66" value="数据输入" style="rounded=0;whiteSpace=wrap;html=1;" parent="1" vertex="1">
          <mxGeometry x="510" y="90" width="110" height="50" as="geometry" />
        </mxCell>
        <mxCell id="nO3CZiCc7D_mRMo5f33q-95" style="edgeStyle=orthogonalEdgeStyle;rounded=0;orthogonalLoop=1;jettySize=auto;html=1;exitX=0.5;exitY=1;exitDx=0;exitDy=0;entryX=0.5;entryY=0;entryDx=0;entryDy=0;" parent="1" source="nO3CZiCc7D_mRMo5f33q-67" target="nO3CZiCc7D_mRMo5f33q-69" edge="1">
          <mxGeometry relative="1" as="geometry" />
        </mxCell>
        <mxCell id="nO3CZiCc7D_mRMo5f33q-67" value="特征构造" style="rounded=0;whiteSpace=wrap;html=1;" parent="1" vertex="1">
          <mxGeometry x="510" y="160" width="110" height="50" as="geometry" />
        </mxCell>
        <mxCell id="nO3CZiCc7D_mRMo5f33q-68" style="edgeStyle=orthogonalEdgeStyle;rounded=0;orthogonalLoop=1;jettySize=auto;html=1;exitX=0.5;exitY=1;exitDx=0;exitDy=0;entryX=0.5;entryY=0;entryDx=0;entryDy=0;" parent="1" source="nO3CZiCc7D_mRMo5f33q-69" target="nO3CZiCc7D_mRMo5f33q-81" edge="1">
          <mxGeometry relative="1" as="geometry" />
        </mxCell>
        <mxCell id="nO3CZiCc7D_mRMo5f33q-69" value="嵌入编码" style="rounded=0;whiteSpace=wrap;html=1;" parent="1" vertex="1">
          <mxGeometry x="510" y="230" width="110" height="50" as="geometry" />
        </mxCell>
        <mxCell id="nO3CZiCc7D_mRMo5f33q-70" value="" style="edgeStyle=orthogonalEdgeStyle;rounded=0;orthogonalLoop=1;jettySize=auto;html=1;" parent="1" source="nO3CZiCc7D_mRMo5f33q-71" target="nO3CZiCc7D_mRMo5f33q-73" edge="1">
          <mxGeometry relative="1" as="geometry" />
        </mxCell>
        <mxCell id="nO3CZiCc7D_mRMo5f33q-71" value="多用户建模模块" style="rounded=0;whiteSpace=wrap;html=1;" parent="1" vertex="1">
          <mxGeometry x="510" y="420" width="110" height="50" as="geometry" />
        </mxCell>
        <mxCell id="nO3CZiCc7D_mRMo5f33q-72" value="" style="edgeStyle=orthogonalEdgeStyle;rounded=0;orthogonalLoop=1;jettySize=auto;html=1;" parent="1" source="nO3CZiCc7D_mRMo5f33q-73" target="nO3CZiCc7D_mRMo5f33q-75" edge="1">
          <mxGeometry relative="1" as="geometry" />
        </mxCell>
        <mxCell id="nO3CZiCc7D_mRMo5f33q-73" value="用户间路由" style="rounded=0;whiteSpace=wrap;html=1;" parent="1" vertex="1">
          <mxGeometry x="510" y="510" width="110" height="50" as="geometry" />
        </mxCell>
        <mxCell id="nO3CZiCc7D_mRMo5f33q-74" value="" style="edgeStyle=orthogonalEdgeStyle;rounded=0;orthogonalLoop=1;jettySize=auto;html=1;" parent="1" source="nO3CZiCc7D_mRMo5f33q-75" target="nO3CZiCc7D_mRMo5f33q-77" edge="1">
          <mxGeometry relative="1" as="geometry" />
        </mxCell>
        <mxCell id="nO3CZiCc7D_mRMo5f33q-75" value="多组全连接层" style="rounded=0;whiteSpace=wrap;html=1;" parent="1" vertex="1">
          <mxGeometry x="510" y="580" width="110" height="50" as="geometry" />
        </mxCell>
        <mxCell id="nO3CZiCc7D_mRMo5f33q-76" value="" style="edgeStyle=orthogonalEdgeStyle;rounded=0;orthogonalLoop=1;jettySize=auto;html=1;" parent="1" source="nO3CZiCc7D_mRMo5f33q-77" target="nO3CZiCc7D_mRMo5f33q-86" edge="1">
          <mxGeometry relative="1" as="geometry" />
        </mxCell>
        <mxCell id="nO3CZiCc7D_mRMo5f33q-77" value="在线多用户向量" style="rounded=0;whiteSpace=wrap;html=1;" parent="1" vertex="1">
          <mxGeometry x="510" y="660" width="110" height="50" as="geometry" />
        </mxCell>
        <mxCell id="nO3CZiCc7D_mRMo5f33q-79" value="用户侧" style="rounded=0;whiteSpace=wrap;html=1;" parent="1" vertex="1">
          <mxGeometry x="510" y="320" width="30" height="60" as="geometry" />
        </mxCell>
        <mxCell id="nO3CZiCc7D_mRMo5f33q-80" value="" style="edgeStyle=orthogonalEdgeStyle;rounded=0;orthogonalLoop=1;jettySize=auto;html=1;" parent="1" source="nO3CZiCc7D_mRMo5f33q-81" target="nO3CZiCc7D_mRMo5f33q-71" edge="1">
          <mxGeometry relative="1" as="geometry" />
        </mxCell>
        <mxCell id="nO3CZiCc7D_mRMo5f33q-81" value="历史序列" style="rounded=0;whiteSpace=wrap;html=1;" parent="1" vertex="1">
          <mxGeometry x="550" y="320" width="30" height="60" as="geometry" />
        </mxCell>
        <mxCell id="nO3CZiCc7D_mRMo5f33q-83" value="嵌入特征" style="rounded=0;whiteSpace=wrap;html=1;" parent="1" vertex="1">
          <mxGeometry x="490" y="290" width="60" height="20" as="geometry" />
        </mxCell>
        <mxCell id="nO3CZiCc7D_mRMo5f33q-84" value="" style="edgeStyle=elbowEdgeStyle;elbow=vertical;endArrow=classic;html=1;exitX=0;exitY=0.5;exitDx=0;exitDy=0;entryX=-0.009;entryY=0.64;entryDx=0;entryDy=0;entryPerimeter=0;" parent="1" source="nO3CZiCc7D_mRMo5f33q-79" target="nO3CZiCc7D_mRMo5f33q-73" edge="1">
          <mxGeometry width="50" height="50" relative="1" as="geometry">
            <mxPoint x="420" y="360" as="sourcePoint" />
            <mxPoint x="490" y="630" as="targetPoint" />
            <Array as="points">
              <mxPoint x="460" y="450" />
              <mxPoint x="460" y="530" />
              <mxPoint x="460" y="480" />
              <mxPoint x="420" y="440" />
            </Array>
          </mxGeometry>
        </mxCell>
        <mxCell id="nO3CZiCc7D_mRMo5f33q-90" value="" style="edgeStyle=orthogonalEdgeStyle;rounded=0;orthogonalLoop=1;jettySize=auto;html=1;" parent="1" source="nO3CZiCc7D_mRMo5f33q-86" target="nO3CZiCc7D_mRMo5f33q-89" edge="1">
          <mxGeometry relative="1" as="geometry" />
        </mxCell>
        <mxCell id="nO3CZiCc7D_mRMo5f33q-86" value="Faiss" style="rounded=0;whiteSpace=wrap;html=1;" parent="1" vertex="1">
          <mxGeometry x="510" y="730" width="110" height="50" as="geometry" />
        </mxCell>
        <mxCell id="nO3CZiCc7D_mRMo5f33q-88" value="" style="edgeStyle=orthogonalEdgeStyle;rounded=0;orthogonalLoop=1;jettySize=auto;html=1;" parent="1" source="nO3CZiCc7D_mRMo5f33q-87" target="nO3CZiCc7D_mRMo5f33q-86" edge="1">
          <mxGeometry relative="1" as="geometry" />
        </mxCell>
        <mxCell id="nO3CZiCc7D_mRMo5f33q-87" value="物品矩阵" style="rounded=0;whiteSpace=wrap;html=1;" parent="1" vertex="1">
          <mxGeometry x="370" y="730" width="110" height="50" as="geometry" />
        </mxCell>
        <mxCell id="nO3CZiCc7D_mRMo5f33q-89" value="TopN 多用户向量召回" style="rounded=0;whiteSpace=wrap;html=1;" parent="1" vertex="1">
          <mxGeometry x="510" y="810" width="110" height="50" as="geometry" />
        </mxCell>
        <mxCell id="nO3CZiCc7D_mRMo5f33q-133" style="edgeStyle=orthogonalEdgeStyle;rounded=0;orthogonalLoop=1;jettySize=auto;html=1;exitX=0.5;exitY=1;exitDx=0;exitDy=0;entryX=0.5;entryY=0;entryDx=0;entryDy=0;" parent="1" target="nO3CZiCc7D_mRMo5f33q-115" edge="1">
          <mxGeometry relative="1" as="geometry">
            <mxPoint x="-165" y="400" as="sourcePoint" />
          </mxGeometry>
        </mxCell>
        <mxCell id="nO3CZiCc7D_mRMo5f33q-101" value="" style="rounded=0;whiteSpace=wrap;html=1;" parent="1" vertex="1">
          <mxGeometry x="-230" y="320" width="140" height="80" as="geometry" />
        </mxCell>
        <mxCell id="nO3CZiCc7D_mRMo5f33q-102" style="edgeStyle=orthogonalEdgeStyle;rounded=0;orthogonalLoop=1;jettySize=auto;html=1;entryX=0.5;entryY=0;entryDx=0;entryDy=0;" parent="1" source="nO3CZiCc7D_mRMo5f33q-103" target="nO3CZiCc7D_mRMo5f33q-105" edge="1">
          <mxGeometry relative="1" as="geometry" />
        </mxCell>
        <mxCell id="nO3CZiCc7D_mRMo5f33q-103" value="开始" style="rounded=0;whiteSpace=wrap;html=1;" parent="1" vertex="1">
          <mxGeometry x="-210" y="30" width="110" height="50" as="geometry" />
        </mxCell>
        <mxCell id="nO3CZiCc7D_mRMo5f33q-104" style="edgeStyle=orthogonalEdgeStyle;rounded=0;orthogonalLoop=1;jettySize=auto;html=1;entryX=0.5;entryY=0;entryDx=0;entryDy=0;" parent="1" source="nO3CZiCc7D_mRMo5f33q-105" target="nO3CZiCc7D_mRMo5f33q-107" edge="1">
          <mxGeometry relative="1" as="geometry" />
        </mxCell>
        <mxCell id="nO3CZiCc7D_mRMo5f33q-105" value="数据输入" style="rounded=0;whiteSpace=wrap;html=1;" parent="1" vertex="1">
          <mxGeometry x="-210" y="100" width="110" height="40" as="geometry" />
        </mxCell>
        <mxCell id="nO3CZiCc7D_mRMo5f33q-106" style="edgeStyle=orthogonalEdgeStyle;rounded=0;orthogonalLoop=1;jettySize=auto;html=1;exitX=0.5;exitY=1;exitDx=0;exitDy=0;entryX=0.5;entryY=0;entryDx=0;entryDy=0;" parent="1" source="nO3CZiCc7D_mRMo5f33q-107" target="nO3CZiCc7D_mRMo5f33q-109" edge="1">
          <mxGeometry relative="1" as="geometry" />
        </mxCell>
        <mxCell id="nO3CZiCc7D_mRMo5f33q-107" value="特征构造" style="rounded=0;whiteSpace=wrap;html=1;" parent="1" vertex="1">
          <mxGeometry x="-210" y="170" width="110" height="50" as="geometry" />
        </mxCell>
        <mxCell id="nO3CZiCc7D_mRMo5f33q-131" style="edgeStyle=orthogonalEdgeStyle;rounded=0;orthogonalLoop=1;jettySize=auto;html=1;exitX=0.5;exitY=1;exitDx=0;exitDy=0;entryX=0.5;entryY=0;entryDx=0;entryDy=0;" parent="1" source="nO3CZiCc7D_mRMo5f33q-109" target="nO3CZiCc7D_mRMo5f33q-101" edge="1">
          <mxGeometry relative="1" as="geometry" />
        </mxCell>
        <mxCell id="nO3CZiCc7D_mRMo5f33q-109" value="嵌入编码" style="rounded=0;whiteSpace=wrap;html=1;" parent="1" vertex="1">
          <mxGeometry x="-210" y="240" width="110" height="50" as="geometry" />
        </mxCell>
        <mxCell id="nO3CZiCc7D_mRMo5f33q-134" style="edgeStyle=orthogonalEdgeStyle;rounded=0;orthogonalLoop=1;jettySize=auto;html=1;exitX=0.5;exitY=1;exitDx=0;exitDy=0;entryX=0.5;entryY=0;entryDx=0;entryDy=0;" parent="1" source="nO3CZiCc7D_mRMo5f33q-115" target="nO3CZiCc7D_mRMo5f33q-117" edge="1">
          <mxGeometry relative="1" as="geometry" />
        </mxCell>
        <mxCell id="nO3CZiCc7D_mRMo5f33q-115" value="多层全连接层" style="rounded=0;whiteSpace=wrap;html=1;" parent="1" vertex="1">
          <mxGeometry x="-215" y="430" width="110" height="40" as="geometry" />
        </mxCell>
        <mxCell id="nO3CZiCc7D_mRMo5f33q-116" value="" style="edgeStyle=orthogonalEdgeStyle;rounded=0;orthogonalLoop=1;jettySize=auto;html=1;" parent="1" source="nO3CZiCc7D_mRMo5f33q-117" target="nO3CZiCc7D_mRMo5f33q-127" edge="1">
          <mxGeometry relative="1" as="geometry" />
        </mxCell>
        <mxCell id="nO3CZiCc7D_mRMo5f33q-117" value="负采样softmax" style="rounded=0;whiteSpace=wrap;html=1;" parent="1" vertex="1">
          <mxGeometry x="-215" y="500" width="110" height="50" as="geometry" />
        </mxCell>
        <mxCell id="nO3CZiCc7D_mRMo5f33q-120" value="用户画像特征" style="rounded=0;whiteSpace=wrap;html=1;" parent="1" vertex="1">
          <mxGeometry x="-210" y="330" width="30" height="60" as="geometry" />
        </mxCell>
        <mxCell id="nO3CZiCc7D_mRMo5f33q-122" value="历史序列" style="rounded=0;whiteSpace=wrap;html=1;" parent="1" vertex="1">
          <mxGeometry x="-170" y="330" width="30" height="60" as="geometry" />
        </mxCell>
        <mxCell id="nO3CZiCc7D_mRMo5f33q-123" value="候选视频画像特征" style="rounded=0;whiteSpace=wrap;html=1;" parent="1" vertex="1">
          <mxGeometry x="-130" y="330" width="30" height="60" as="geometry" />
        </mxCell>
        <mxCell id="nO3CZiCc7D_mRMo5f33q-127" value="输出物品矩阵" style="rounded=0;whiteSpace=wrap;html=1;" parent="1" vertex="1">
          <mxGeometry x="-215" y="570" width="110" height="50" as="geometry" />
        </mxCell>
        <mxCell id="nO3CZiCc7D_mRMo5f33q-135" value="" style="rounded=0;whiteSpace=wrap;html=1;" parent="1" vertex="1">
          <mxGeometry x="-810" y="300" width="200" height="110" as="geometry" />
        </mxCell>
        <mxCell id="nO3CZiCc7D_mRMo5f33q-136" style="edgeStyle=orthogonalEdgeStyle;rounded=0;orthogonalLoop=1;jettySize=auto;html=1;entryX=0.5;entryY=0;entryDx=0;entryDy=0;" parent="1" source="nO3CZiCc7D_mRMo5f33q-137" target="nO3CZiCc7D_mRMo5f33q-139" edge="1">
          <mxGeometry relative="1" as="geometry" />
        </mxCell>
        <mxCell id="nO3CZiCc7D_mRMo5f33q-137" value="开始" style="rounded=0;whiteSpace=wrap;html=1;" parent="1" vertex="1">
          <mxGeometry x="-762" y="35" width="110" height="50" as="geometry" />
        </mxCell>
        <mxCell id="nO3CZiCc7D_mRMo5f33q-138" style="edgeStyle=orthogonalEdgeStyle;rounded=0;orthogonalLoop=1;jettySize=auto;html=1;entryX=0.5;entryY=0;entryDx=0;entryDy=0;" parent="1" source="nO3CZiCc7D_mRMo5f33q-139" target="nO3CZiCc7D_mRMo5f33q-141" edge="1">
          <mxGeometry relative="1" as="geometry" />
        </mxCell>
        <mxCell id="nO3CZiCc7D_mRMo5f33q-139" value="数据输入" style="rounded=0;whiteSpace=wrap;html=1;" parent="1" vertex="1">
          <mxGeometry x="-762" y="105" width="110" height="40" as="geometry" />
        </mxCell>
        <mxCell id="nO3CZiCc7D_mRMo5f33q-140" style="edgeStyle=orthogonalEdgeStyle;rounded=0;orthogonalLoop=1;jettySize=auto;html=1;exitX=0.5;exitY=1;exitDx=0;exitDy=0;entryX=0.5;entryY=0;entryDx=0;entryDy=0;" parent="1" source="nO3CZiCc7D_mRMo5f33q-141" target="nO3CZiCc7D_mRMo5f33q-143" edge="1">
          <mxGeometry relative="1" as="geometry" />
        </mxCell>
        <mxCell id="nO3CZiCc7D_mRMo5f33q-141" value="特征构造" style="rounded=0;whiteSpace=wrap;html=1;" parent="1" vertex="1">
          <mxGeometry x="-762" y="175" width="110" height="50" as="geometry" />
        </mxCell>
        <mxCell id="nO3CZiCc7D_mRMo5f33q-142" style="edgeStyle=orthogonalEdgeStyle;rounded=0;orthogonalLoop=1;jettySize=auto;html=1;exitX=0.5;exitY=1;exitDx=0;exitDy=0;" parent="1" source="nO3CZiCc7D_mRMo5f33q-143" edge="1">
          <mxGeometry relative="1" as="geometry">
            <mxPoint x="-707" y="305" as="targetPoint" />
          </mxGeometry>
        </mxCell>
        <mxCell id="nO3CZiCc7D_mRMo5f33q-143" value="嵌入编码" style="rounded=0;whiteSpace=wrap;html=1;" parent="1" vertex="1">
          <mxGeometry x="-762" y="245" width="110" height="40" as="geometry" />
        </mxCell>
        <mxCell id="nO3CZiCc7D_mRMo5f33q-144" value="" style="edgeStyle=orthogonalEdgeStyle;rounded=0;orthogonalLoop=1;jettySize=auto;html=1;entryX=0.682;entryY=0.02;entryDx=0;entryDy=0;entryPerimeter=0;" parent="1" source="nO3CZiCc7D_mRMo5f33q-145" target="nO3CZiCc7D_mRMo5f33q-147" edge="1">
          <mxGeometry relative="1" as="geometry" />
        </mxCell>
        <mxCell id="nO3CZiCc7D_mRMo5f33q-145" value="注意力模块" style="rounded=0;whiteSpace=wrap;html=1;" parent="1" vertex="1">
          <mxGeometry x="-710" y="425" width="60" height="30" as="geometry" />
        </mxCell>
        <mxCell id="nO3CZiCc7D_mRMo5f33q-171" style="edgeStyle=orthogonalEdgeStyle;rounded=0;orthogonalLoop=1;jettySize=auto;html=1;entryX=0.5;entryY=0;entryDx=0;entryDy=0;" parent="1" source="nO3CZiCc7D_mRMo5f33q-147" target="nO3CZiCc7D_mRMo5f33q-153" edge="1">
          <mxGeometry relative="1" as="geometry" />
        </mxCell>
        <mxCell id="nO3CZiCc7D_mRMo5f33q-147" value="&lt;span&gt;多层全连接MLP&lt;/span&gt;" style="rounded=0;whiteSpace=wrap;html=1;" parent="1" vertex="1">
          <mxGeometry x="-795" y="520" width="170" height="50" as="geometry" />
        </mxCell>
        <mxCell id="nO3CZiCc7D_mRMo5f33q-151" value="输出" style="rounded=0;whiteSpace=wrap;html=1;" parent="1" vertex="1">
          <mxGeometry x="-765" y="675" width="110" height="50" as="geometry" />
        </mxCell>
        <mxCell id="nO3CZiCc7D_mRMo5f33q-152" style="edgeStyle=orthogonalEdgeStyle;rounded=0;orthogonalLoop=1;jettySize=auto;html=1;exitX=0.5;exitY=1;exitDx=0;exitDy=0;entryX=0.5;entryY=0;entryDx=0;entryDy=0;" parent="1" source="nO3CZiCc7D_mRMo5f33q-153" target="nO3CZiCc7D_mRMo5f33q-151" edge="1">
          <mxGeometry relative="1" as="geometry" />
        </mxCell>
        <mxCell id="nO3CZiCc7D_mRMo5f33q-153" value="softmax二分类" style="rounded=0;whiteSpace=wrap;html=1;" parent="1" vertex="1">
          <mxGeometry x="-765" y="605" width="110" height="40" as="geometry" />
        </mxCell>
        <mxCell id="nO3CZiCc7D_mRMo5f33q-154" value="用户侧" style="rounded=0;whiteSpace=wrap;html=1;" parent="1" vertex="1">
          <mxGeometry x="-775" y="325" width="30" height="60" as="geometry" />
        </mxCell>
        <mxCell id="nO3CZiCc7D_mRMo5f33q-155" value="" style="edgeStyle=orthogonalEdgeStyle;rounded=0;orthogonalLoop=1;jettySize=auto;html=1;" parent="1" source="nO3CZiCc7D_mRMo5f33q-156" target="nO3CZiCc7D_mRMo5f33q-145" edge="1">
          <mxGeometry relative="1" as="geometry" />
        </mxCell>
        <mxCell id="nO3CZiCc7D_mRMo5f33q-156" value="历史序列" style="rounded=0;whiteSpace=wrap;html=1;" parent="1" vertex="1">
          <mxGeometry x="-695" y="325" width="30" height="60" as="geometry" />
        </mxCell>
        <mxCell id="nO3CZiCc7D_mRMo5f33q-167" style="edgeStyle=orthogonalEdgeStyle;rounded=0;orthogonalLoop=1;jettySize=auto;html=1;entryX=0.441;entryY=-0.02;entryDx=0;entryDy=0;entryPerimeter=0;" parent="1" source="nO3CZiCc7D_mRMo5f33q-157" target="nO3CZiCc7D_mRMo5f33q-147" edge="1">
          <mxGeometry relative="1" as="geometry" />
        </mxCell>
        <mxCell id="nO3CZiCc7D_mRMo5f33q-157" value="上下文" style="rounded=0;whiteSpace=wrap;html=1;" parent="1" vertex="1">
          <mxGeometry x="-735" y="325" width="30" height="60" as="geometry" />
        </mxCell>
        <mxCell id="nO3CZiCc7D_mRMo5f33q-160" value="" style="edgeStyle=elbowEdgeStyle;elbow=vertical;endArrow=classic;html=1;entryX=1;entryY=0.5;entryDx=0;entryDy=0;exitX=1;exitY=0.5;exitDx=0;exitDy=0;" parent="1" source="nO3CZiCc7D_mRMo5f33q-162" target="nO3CZiCc7D_mRMo5f33q-145" edge="1">
          <mxGeometry width="50" height="50" relative="1" as="geometry">
            <mxPoint x="-605" y="355" as="sourcePoint" />
            <mxPoint x="-555" y="565" as="targetPoint" />
            <Array as="points">
              <mxPoint x="-585" y="535" />
              <mxPoint x="-815" y="545" />
              <mxPoint x="-815" y="495" />
              <mxPoint x="-855" y="455" />
            </Array>
          </mxGeometry>
        </mxCell>
        <mxCell id="nO3CZiCc7D_mRMo5f33q-162" value="候选特征" style="rounded=0;whiteSpace=wrap;html=1;" parent="1" vertex="1">
          <mxGeometry x="-652" y="325" width="30" height="60" as="geometry" />
        </mxCell>
        <mxCell id="nO3CZiCc7D_mRMo5f33q-169" value="池化" style="rounded=0;whiteSpace=wrap;html=1;" parent="1" vertex="1">
          <mxGeometry x="-710" y="475" width="60" height="30" as="geometry" />
        </mxCell>
        <mxCell id="nO3CZiCc7D_mRMo5f33q-172" style="edgeStyle=orthogonalEdgeStyle;rounded=0;orthogonalLoop=1;jettySize=auto;html=1;entryX=0.441;entryY=-0.02;entryDx=0;entryDy=0;entryPerimeter=0;" parent="1" edge="1">
          <mxGeometry relative="1" as="geometry">
            <mxPoint x="-760.5" y="386" as="sourcePoint" />
            <mxPoint x="-760.5" y="520" as="targetPoint" />
          </mxGeometry>
        </mxCell>
        <mxCell id="nO3CZiCc7D_mRMo5f33q-175" value="嵌入特征" style="rounded=0;whiteSpace=wrap;html=1;" parent="1" vertex="1">
          <mxGeometry x="-810" y="300" width="58" height="15" as="geometry" />
        </mxCell>
        <mxCell id="nO3CZiCc7D_mRMo5f33q-276" value="" style="edgeStyle=orthogonalEdgeStyle;rounded=0;orthogonalLoop=1;jettySize=auto;html=1;entryX=0.216;entryY=0;entryDx=0;entryDy=0;entryPerimeter=0;exitX=0.75;exitY=1;exitDx=0;exitDy=0;" parent="1" source="nO3CZiCc7D_mRMo5f33q-274" target="nO3CZiCc7D_mRMo5f33q-275" edge="1">
          <mxGeometry relative="1" as="geometry" />
        </mxCell>
        <mxCell id="nO3CZiCc7D_mRMo5f33q-281" style="edgeStyle=orthogonalEdgeStyle;rounded=0;orthogonalLoop=1;jettySize=auto;html=1;exitX=0.25;exitY=1;exitDx=0;exitDy=0;" parent="1" source="nO3CZiCc7D_mRMo5f33q-274" edge="1">
          <mxGeometry relative="1" as="geometry">
            <mxPoint x="-270" y="920" as="targetPoint" />
          </mxGeometry>
        </mxCell>
        <mxCell id="nO3CZiCc7D_mRMo5f33q-274" value="行为序列视频" style="rounded=0;whiteSpace=wrap;html=1;" parent="1" vertex="1">
          <mxGeometry x="-290" y="780" width="80" height="40" as="geometry" />
        </mxCell>
        <mxCell id="nO3CZiCc7D_mRMo5f33q-287" style="edgeStyle=orthogonalEdgeStyle;rounded=0;orthogonalLoop=1;jettySize=auto;html=1;exitX=0.5;exitY=1;exitDx=0;exitDy=0;entryX=0.444;entryY=-0.05;entryDx=0;entryDy=0;entryPerimeter=0;" parent="1" source="nO3CZiCc7D_mRMo5f33q-275" target="nO3CZiCc7D_mRMo5f33q-277" edge="1">
          <mxGeometry relative="1" as="geometry" />
        </mxCell>
        <mxCell id="nO3CZiCc7D_mRMo5f33q-275" value="向量乘积" style="rounded=0;whiteSpace=wrap;html=1;" parent="1" vertex="1">
          <mxGeometry x="-240" y="860" width="80" height="40" as="geometry" />
        </mxCell>
        <mxCell id="nO3CZiCc7D_mRMo5f33q-288" style="edgeStyle=orthogonalEdgeStyle;rounded=0;orthogonalLoop=1;jettySize=auto;html=1;exitX=0.5;exitY=1;exitDx=0;exitDy=0;entryX=0.5;entryY=0;entryDx=0;entryDy=0;" parent="1" source="nO3CZiCc7D_mRMo5f33q-277" target="nO3CZiCc7D_mRMo5f33q-283" edge="1">
          <mxGeometry relative="1" as="geometry" />
        </mxCell>
        <mxCell id="nO3CZiCc7D_mRMo5f33q-277" value="拼接层" style="rounded=0;whiteSpace=wrap;html=1;" parent="1" vertex="1">
          <mxGeometry x="-285" y="920" width="180" height="40" as="geometry" />
        </mxCell>
        <mxCell id="nO3CZiCc7D_mRMo5f33q-280" style="edgeStyle=orthogonalEdgeStyle;rounded=0;orthogonalLoop=1;jettySize=auto;html=1;exitX=0.25;exitY=1;exitDx=0;exitDy=0;entryX=0.75;entryY=0;entryDx=0;entryDy=0;" parent="1" source="nO3CZiCc7D_mRMo5f33q-279" target="nO3CZiCc7D_mRMo5f33q-275" edge="1">
          <mxGeometry relative="1" as="geometry" />
        </mxCell>
        <mxCell id="nO3CZiCc7D_mRMo5f33q-290" style="edgeStyle=orthogonalEdgeStyle;rounded=0;orthogonalLoop=1;jettySize=auto;html=1;exitX=0.75;exitY=1;exitDx=0;exitDy=0;entryX=0.889;entryY=0.025;entryDx=0;entryDy=0;entryPerimeter=0;" parent="1" source="nO3CZiCc7D_mRMo5f33q-279" target="nO3CZiCc7D_mRMo5f33q-277" edge="1">
          <mxGeometry relative="1" as="geometry" />
        </mxCell>
        <mxCell id="nO3CZiCc7D_mRMo5f33q-279" value="候选视频" style="rounded=0;whiteSpace=wrap;html=1;" parent="1" vertex="1">
          <mxGeometry x="-185" y="780" width="80" height="40" as="geometry" />
        </mxCell>
        <mxCell id="nO3CZiCc7D_mRMo5f33q-289" style="edgeStyle=orthogonalEdgeStyle;rounded=0;orthogonalLoop=1;jettySize=auto;html=1;exitX=0.5;exitY=1;exitDx=0;exitDy=0;entryX=0.5;entryY=0;entryDx=0;entryDy=0;" parent="1" source="nO3CZiCc7D_mRMo5f33q-283" target="nO3CZiCc7D_mRMo5f33q-285" edge="1">
          <mxGeometry relative="1" as="geometry" />
        </mxCell>
        <mxCell id="nO3CZiCc7D_mRMo5f33q-283" value="激活层" style="rounded=0;whiteSpace=wrap;html=1;" parent="1" vertex="1">
          <mxGeometry x="-250" y="980" width="120" height="30" as="geometry" />
        </mxCell>
        <mxCell id="nO3CZiCc7D_mRMo5f33q-292" value="" style="edgeStyle=orthogonalEdgeStyle;rounded=0;orthogonalLoop=1;jettySize=auto;html=1;" parent="1" source="nO3CZiCc7D_mRMo5f33q-285" target="nO3CZiCc7D_mRMo5f33q-291" edge="1">
          <mxGeometry relative="1" as="geometry" />
        </mxCell>
        <mxCell id="nO3CZiCc7D_mRMo5f33q-285" value="线性输出层" style="rounded=0;whiteSpace=wrap;html=1;" parent="1" vertex="1">
          <mxGeometry x="-250" y="1030" width="120" height="30" as="geometry" />
        </mxCell>
        <mxCell id="nO3CZiCc7D_mRMo5f33q-291" value="注意力权重w" style="rounded=0;whiteSpace=wrap;html=1;" parent="1" vertex="1">
          <mxGeometry x="-250" y="1080" width="120" height="30" as="geometry" />
        </mxCell>
        <mxCell id="nO3CZiCc7D_mRMo5f33q-293" style="edgeStyle=orthogonalEdgeStyle;rounded=0;orthogonalLoop=1;jettySize=auto;html=1;exitX=0.5;exitY=1;exitDx=0;exitDy=0;entryX=0.5;entryY=0;entryDx=0;entryDy=0;" parent="1" target="nO3CZiCc7D_mRMo5f33q-304" edge="1">
          <mxGeometry relative="1" as="geometry">
            <mxPoint x="-365" y="420" as="sourcePoint" />
          </mxGeometry>
        </mxCell>
        <mxCell id="nO3CZiCc7D_mRMo5f33q-294" value="" style="rounded=0;whiteSpace=wrap;html=1;" parent="1" vertex="1">
          <mxGeometry x="-430" y="340" width="140" height="80" as="geometry" />
        </mxCell>
        <mxCell id="nO3CZiCc7D_mRMo5f33q-295" style="edgeStyle=orthogonalEdgeStyle;rounded=0;orthogonalLoop=1;jettySize=auto;html=1;entryX=0.5;entryY=0;entryDx=0;entryDy=0;" parent="1" source="nO3CZiCc7D_mRMo5f33q-296" target="nO3CZiCc7D_mRMo5f33q-298" edge="1">
          <mxGeometry relative="1" as="geometry" />
        </mxCell>
        <mxCell id="nO3CZiCc7D_mRMo5f33q-296" value="开始" style="rounded=0;whiteSpace=wrap;html=1;" parent="1" vertex="1">
          <mxGeometry x="-410" y="50" width="110" height="50" as="geometry" />
        </mxCell>
        <mxCell id="nO3CZiCc7D_mRMo5f33q-297" style="edgeStyle=orthogonalEdgeStyle;rounded=0;orthogonalLoop=1;jettySize=auto;html=1;entryX=0.5;entryY=0;entryDx=0;entryDy=0;" parent="1" source="nO3CZiCc7D_mRMo5f33q-298" target="nO3CZiCc7D_mRMo5f33q-300" edge="1">
          <mxGeometry relative="1" as="geometry" />
        </mxCell>
        <mxCell id="nO3CZiCc7D_mRMo5f33q-298" value="数据输入" style="rounded=0;whiteSpace=wrap;html=1;" parent="1" vertex="1">
          <mxGeometry x="-410" y="120" width="110" height="40" as="geometry" />
        </mxCell>
        <mxCell id="nO3CZiCc7D_mRMo5f33q-299" style="edgeStyle=orthogonalEdgeStyle;rounded=0;orthogonalLoop=1;jettySize=auto;html=1;exitX=0.5;exitY=1;exitDx=0;exitDy=0;entryX=0.5;entryY=0;entryDx=0;entryDy=0;" parent="1" source="nO3CZiCc7D_mRMo5f33q-300" target="nO3CZiCc7D_mRMo5f33q-302" edge="1">
          <mxGeometry relative="1" as="geometry" />
        </mxCell>
        <mxCell id="nO3CZiCc7D_mRMo5f33q-300" value="特征构造" style="rounded=0;whiteSpace=wrap;html=1;" parent="1" vertex="1">
          <mxGeometry x="-410" y="190" width="110" height="50" as="geometry" />
        </mxCell>
        <mxCell id="nO3CZiCc7D_mRMo5f33q-301" style="edgeStyle=orthogonalEdgeStyle;rounded=0;orthogonalLoop=1;jettySize=auto;html=1;exitX=0.5;exitY=1;exitDx=0;exitDy=0;entryX=0.5;entryY=0;entryDx=0;entryDy=0;" parent="1" source="nO3CZiCc7D_mRMo5f33q-302" target="nO3CZiCc7D_mRMo5f33q-294" edge="1">
          <mxGeometry relative="1" as="geometry" />
        </mxCell>
        <mxCell id="nO3CZiCc7D_mRMo5f33q-302" value="嵌入编码" style="rounded=0;whiteSpace=wrap;html=1;" parent="1" vertex="1">
          <mxGeometry x="-410" y="260" width="110" height="50" as="geometry" />
        </mxCell>
        <mxCell id="nO3CZiCc7D_mRMo5f33q-303" style="edgeStyle=orthogonalEdgeStyle;rounded=0;orthogonalLoop=1;jettySize=auto;html=1;exitX=0.5;exitY=1;exitDx=0;exitDy=0;entryX=0.5;entryY=0;entryDx=0;entryDy=0;" parent="1" source="nO3CZiCc7D_mRMo5f33q-304" edge="1">
          <mxGeometry relative="1" as="geometry">
            <mxPoint x="-360" y="520" as="targetPoint" />
          </mxGeometry>
        </mxCell>
        <mxCell id="nO3CZiCc7D_mRMo5f33q-304" value="多层全连接层" style="rounded=0;whiteSpace=wrap;html=1;" parent="1" vertex="1">
          <mxGeometry x="-415" y="450" width="110" height="40" as="geometry" />
        </mxCell>
        <mxCell id="nO3CZiCc7D_mRMo5f33q-307" value="用户画像特征" style="rounded=0;whiteSpace=wrap;html=1;" parent="1" vertex="1">
          <mxGeometry x="-410" y="350" width="30" height="60" as="geometry" />
        </mxCell>
        <mxCell id="nO3CZiCc7D_mRMo5f33q-308" value="历史序列" style="rounded=0;whiteSpace=wrap;html=1;" parent="1" vertex="1">
          <mxGeometry x="-370" y="350" width="30" height="60" as="geometry" />
        </mxCell>
        <mxCell id="nO3CZiCc7D_mRMo5f33q-309" value="候选视频画像特征" style="rounded=0;whiteSpace=wrap;html=1;" parent="1" vertex="1">
          <mxGeometry x="-330" y="350" width="30" height="60" as="geometry" />
        </mxCell>
        <mxCell id="nO3CZiCc7D_mRMo5f33q-311" value="" style="edgeStyle=orthogonalEdgeStyle;rounded=0;orthogonalLoop=1;jettySize=auto;html=1;" parent="1" target="nO3CZiCc7D_mRMo5f33q-313" edge="1">
          <mxGeometry relative="1" as="geometry">
            <mxPoint x="-360" y="570" as="sourcePoint" />
          </mxGeometry>
        </mxCell>
        <mxCell id="nO3CZiCc7D_mRMo5f33q-312" value="" style="edgeStyle=orthogonalEdgeStyle;rounded=0;orthogonalLoop=1;jettySize=auto;html=1;" parent="1" source="nO3CZiCc7D_mRMo5f33q-313" target="nO3CZiCc7D_mRMo5f33q-316" edge="1">
          <mxGeometry relative="1" as="geometry" />
        </mxCell>
        <mxCell id="nO3CZiCc7D_mRMo5f33q-313" value="Faiss" style="rounded=0;whiteSpace=wrap;html=1;" parent="1" vertex="1">
          <mxGeometry x="-415" y="590" width="110" height="50" as="geometry" />
        </mxCell>
        <mxCell id="nO3CZiCc7D_mRMo5f33q-314" value="" style="edgeStyle=orthogonalEdgeStyle;rounded=0;orthogonalLoop=1;jettySize=auto;html=1;" parent="1" source="nO3CZiCc7D_mRMo5f33q-315" target="nO3CZiCc7D_mRMo5f33q-313" edge="1">
          <mxGeometry relative="1" as="geometry" />
        </mxCell>
        <mxCell id="nO3CZiCc7D_mRMo5f33q-315" value="物品矩阵" style="rounded=0;whiteSpace=wrap;html=1;" parent="1" vertex="1">
          <mxGeometry x="-555" y="590" width="110" height="50" as="geometry" />
        </mxCell>
        <mxCell id="nO3CZiCc7D_mRMo5f33q-316" value="TopN 近似向量召回" style="rounded=0;whiteSpace=wrap;html=1;" parent="1" vertex="1">
          <mxGeometry x="-415" y="670" width="110" height="50" as="geometry" />
        </mxCell>
        <mxCell id="nO3CZiCc7D_mRMo5f33q-317" value="在线用户向量" style="rounded=0;whiteSpace=wrap;html=1;" parent="1" vertex="1">
          <mxGeometry x="-415" y="520" width="110" height="50" as="geometry" />
        </mxCell>
        <mxCell id="nO3CZiCc7D_mRMo5f33q-346" style="edgeStyle=orthogonalEdgeStyle;rounded=0;orthogonalLoop=1;jettySize=auto;html=1;entryX=0.5;entryY=0;entryDx=0;entryDy=0;" parent="1" source="nO3CZiCc7D_mRMo5f33q-318" target="nO3CZiCc7D_mRMo5f33q-330" edge="1">
          <mxGeometry relative="1" as="geometry" />
        </mxCell>
        <mxCell id="nO3CZiCc7D_mRMo5f33q-318" value="" style="rounded=0;whiteSpace=wrap;html=1;" parent="1" vertex="1">
          <mxGeometry x="-1105" y="310" width="170" height="95" as="geometry" />
        </mxCell>
        <mxCell id="nO3CZiCc7D_mRMo5f33q-319" style="edgeStyle=orthogonalEdgeStyle;rounded=0;orthogonalLoop=1;jettySize=auto;html=1;entryX=0.5;entryY=0;entryDx=0;entryDy=0;" parent="1" source="nO3CZiCc7D_mRMo5f33q-320" target="nO3CZiCc7D_mRMo5f33q-322" edge="1">
          <mxGeometry relative="1" as="geometry" />
        </mxCell>
        <mxCell id="nO3CZiCc7D_mRMo5f33q-320" value="开始" style="rounded=0;whiteSpace=wrap;html=1;" parent="1" vertex="1">
          <mxGeometry x="-1072" y="40" width="110" height="50" as="geometry" />
        </mxCell>
        <mxCell id="nO3CZiCc7D_mRMo5f33q-321" style="edgeStyle=orthogonalEdgeStyle;rounded=0;orthogonalLoop=1;jettySize=auto;html=1;entryX=0.5;entryY=0;entryDx=0;entryDy=0;" parent="1" source="nO3CZiCc7D_mRMo5f33q-322" target="nO3CZiCc7D_mRMo5f33q-324" edge="1">
          <mxGeometry relative="1" as="geometry" />
        </mxCell>
        <mxCell id="nO3CZiCc7D_mRMo5f33q-322" value="数据输入" style="rounded=0;whiteSpace=wrap;html=1;" parent="1" vertex="1">
          <mxGeometry x="-1072" y="110" width="110" height="40" as="geometry" />
        </mxCell>
        <mxCell id="nO3CZiCc7D_mRMo5f33q-323" style="edgeStyle=orthogonalEdgeStyle;rounded=0;orthogonalLoop=1;jettySize=auto;html=1;exitX=0.5;exitY=1;exitDx=0;exitDy=0;entryX=0.5;entryY=0;entryDx=0;entryDy=0;" parent="1" source="nO3CZiCc7D_mRMo5f33q-324" target="nO3CZiCc7D_mRMo5f33q-326" edge="1">
          <mxGeometry relative="1" as="geometry" />
        </mxCell>
        <mxCell id="nO3CZiCc7D_mRMo5f33q-324" value="特征构造" style="rounded=0;whiteSpace=wrap;html=1;" parent="1" vertex="1">
          <mxGeometry x="-1072" y="180" width="110" height="50" as="geometry" />
        </mxCell>
        <mxCell id="nO3CZiCc7D_mRMo5f33q-325" style="edgeStyle=orthogonalEdgeStyle;rounded=0;orthogonalLoop=1;jettySize=auto;html=1;exitX=0.5;exitY=1;exitDx=0;exitDy=0;" parent="1" source="nO3CZiCc7D_mRMo5f33q-326" edge="1">
          <mxGeometry relative="1" as="geometry">
            <mxPoint x="-1017" y="310" as="targetPoint" />
          </mxGeometry>
        </mxCell>
        <mxCell id="nO3CZiCc7D_mRMo5f33q-326" value="嵌入编码" style="rounded=0;whiteSpace=wrap;html=1;" parent="1" vertex="1">
          <mxGeometry x="-1072" y="250" width="110" height="40" as="geometry" />
        </mxCell>
        <mxCell id="nO3CZiCc7D_mRMo5f33q-329" style="edgeStyle=orthogonalEdgeStyle;rounded=0;orthogonalLoop=1;jettySize=auto;html=1;entryX=0.5;entryY=0;entryDx=0;entryDy=0;" parent="1" source="nO3CZiCc7D_mRMo5f33q-330" target="nO3CZiCc7D_mRMo5f33q-333" edge="1">
          <mxGeometry relative="1" as="geometry" />
        </mxCell>
        <mxCell id="nO3CZiCc7D_mRMo5f33q-330" value="&lt;span&gt;多层全连接MLP&lt;/span&gt;" style="rounded=0;whiteSpace=wrap;html=1;" parent="1" vertex="1">
          <mxGeometry x="-1074.5" y="435" width="109.5" height="40" as="geometry" />
        </mxCell>
        <mxCell id="nO3CZiCc7D_mRMo5f33q-331" value="输出" style="rounded=0;whiteSpace=wrap;html=1;" parent="1" vertex="1">
          <mxGeometry x="-1074.5" y="560" width="114.5" height="40" as="geometry" />
        </mxCell>
        <mxCell id="nO3CZiCc7D_mRMo5f33q-332" style="edgeStyle=orthogonalEdgeStyle;rounded=0;orthogonalLoop=1;jettySize=auto;html=1;exitX=0.5;exitY=1;exitDx=0;exitDy=0;entryX=0.5;entryY=0;entryDx=0;entryDy=0;" parent="1" source="nO3CZiCc7D_mRMo5f33q-333" target="nO3CZiCc7D_mRMo5f33q-331" edge="1">
          <mxGeometry relative="1" as="geometry" />
        </mxCell>
        <mxCell id="nO3CZiCc7D_mRMo5f33q-333" value="softmax二分类" style="rounded=0;whiteSpace=wrap;html=1;" parent="1" vertex="1">
          <mxGeometry x="-1074.5" y="500" width="110" height="40" as="geometry" />
        </mxCell>
        <mxCell id="nO3CZiCc7D_mRMo5f33q-334" value="用户侧" style="rounded=0;whiteSpace=wrap;html=1;" parent="1" vertex="1">
          <mxGeometry x="-1085" y="330" width="30" height="60" as="geometry" />
        </mxCell>
        <mxCell id="nO3CZiCc7D_mRMo5f33q-336" value="历史序列" style="rounded=0;whiteSpace=wrap;html=1;" parent="1" vertex="1">
          <mxGeometry x="-1032" y="330" width="30" height="60" as="geometry" />
        </mxCell>
        <mxCell id="nO3CZiCc7D_mRMo5f33q-340" value="候选特征" style="rounded=0;whiteSpace=wrap;html=1;" parent="1" vertex="1">
          <mxGeometry x="-980" y="330" width="30" height="60" as="geometry" />
        </mxCell>
        <mxCell id="nO3CZiCc7D_mRMo5f33q-343" value="嵌入特征" style="rounded=0;whiteSpace=wrap;html=1;" parent="1" vertex="1">
          <mxGeometry x="-1105" y="310" width="58" height="15" as="geometry" />
        </mxCell>
        <mxCell id="teVS5_G8p5La1gkVhsoy-33" style="edgeStyle=orthogonalEdgeStyle;rounded=0;orthogonalLoop=1;jettySize=auto;html=1;exitX=0.5;exitY=1;exitDx=0;exitDy=0;entryX=0.5;entryY=0;entryDx=0;entryDy=0;" edge="1" parent="1" source="teVS5_G8p5La1gkVhsoy-1" target="teVS5_G8p5La1gkVhsoy-11">
          <mxGeometry relative="1" as="geometry" />
        </mxCell>
        <mxCell id="teVS5_G8p5La1gkVhsoy-1" value="" style="rounded=0;whiteSpace=wrap;html=1;" vertex="1" parent="1">
          <mxGeometry x="-1382" y="312.5" width="150" height="87.5" as="geometry" />
        </mxCell>
        <mxCell id="teVS5_G8p5La1gkVhsoy-2" style="edgeStyle=orthogonalEdgeStyle;rounded=0;orthogonalLoop=1;jettySize=auto;html=1;entryX=0.5;entryY=0;entryDx=0;entryDy=0;" edge="1" parent="1" source="teVS5_G8p5La1gkVhsoy-3" target="teVS5_G8p5La1gkVhsoy-5">
          <mxGeometry relative="1" as="geometry" />
        </mxCell>
        <mxCell id="teVS5_G8p5La1gkVhsoy-3" value="开始" style="rounded=0;whiteSpace=wrap;html=1;" vertex="1" parent="1">
          <mxGeometry x="-1362" y="35" width="110" height="50" as="geometry" />
        </mxCell>
        <mxCell id="teVS5_G8p5La1gkVhsoy-4" style="edgeStyle=orthogonalEdgeStyle;rounded=0;orthogonalLoop=1;jettySize=auto;html=1;entryX=0.5;entryY=0;entryDx=0;entryDy=0;" edge="1" parent="1" source="teVS5_G8p5La1gkVhsoy-5" target="teVS5_G8p5La1gkVhsoy-7">
          <mxGeometry relative="1" as="geometry" />
        </mxCell>
        <mxCell id="teVS5_G8p5La1gkVhsoy-5" value="数据输入" style="rounded=0;whiteSpace=wrap;html=1;" vertex="1" parent="1">
          <mxGeometry x="-1362" y="105" width="110" height="40" as="geometry" />
        </mxCell>
        <mxCell id="teVS5_G8p5La1gkVhsoy-6" style="edgeStyle=orthogonalEdgeStyle;rounded=0;orthogonalLoop=1;jettySize=auto;html=1;exitX=0.5;exitY=1;exitDx=0;exitDy=0;entryX=0.5;entryY=0;entryDx=0;entryDy=0;" edge="1" parent="1" source="teVS5_G8p5La1gkVhsoy-7" target="teVS5_G8p5La1gkVhsoy-9">
          <mxGeometry relative="1" as="geometry" />
        </mxCell>
        <mxCell id="teVS5_G8p5La1gkVhsoy-7" value="特征构造" style="rounded=0;whiteSpace=wrap;html=1;" vertex="1" parent="1">
          <mxGeometry x="-1362" y="175" width="110" height="50" as="geometry" />
        </mxCell>
        <mxCell id="teVS5_G8p5La1gkVhsoy-8" style="edgeStyle=orthogonalEdgeStyle;rounded=0;orthogonalLoop=1;jettySize=auto;html=1;exitX=0.5;exitY=1;exitDx=0;exitDy=0;" edge="1" parent="1" source="teVS5_G8p5La1gkVhsoy-9">
          <mxGeometry relative="1" as="geometry">
            <mxPoint x="-1307" y="305" as="targetPoint" />
          </mxGeometry>
        </mxCell>
        <mxCell id="teVS5_G8p5La1gkVhsoy-9" value="嵌入编码" style="rounded=0;whiteSpace=wrap;html=1;" vertex="1" parent="1">
          <mxGeometry x="-1362" y="245" width="110" height="40" as="geometry" />
        </mxCell>
        <mxCell id="teVS5_G8p5La1gkVhsoy-34" style="edgeStyle=orthogonalEdgeStyle;rounded=0;orthogonalLoop=1;jettySize=auto;html=1;exitX=0.5;exitY=1;exitDx=0;exitDy=0;entryX=0.5;entryY=0;entryDx=0;entryDy=0;" edge="1" parent="1" source="teVS5_G8p5La1gkVhsoy-11" target="teVS5_G8p5La1gkVhsoy-13">
          <mxGeometry relative="1" as="geometry" />
        </mxCell>
        <mxCell id="teVS5_G8p5La1gkVhsoy-11" value="多头自注意力模块&lt;br&gt;(随机遮罩)" style="rounded=0;whiteSpace=wrap;html=1;" vertex="1" parent="1">
          <mxGeometry x="-1382" y="440" width="150" height="50" as="geometry" />
        </mxCell>
        <mxCell id="teVS5_G8p5La1gkVhsoy-12" style="edgeStyle=orthogonalEdgeStyle;rounded=0;orthogonalLoop=1;jettySize=auto;html=1;entryX=0.5;entryY=0;entryDx=0;entryDy=0;" edge="1" parent="1" source="teVS5_G8p5La1gkVhsoy-13" target="teVS5_G8p5La1gkVhsoy-16">
          <mxGeometry relative="1" as="geometry" />
        </mxCell>
        <mxCell id="teVS5_G8p5La1gkVhsoy-13" value="&lt;span&gt;多层全连接MLP&lt;/span&gt;" style="rounded=0;whiteSpace=wrap;html=1;" vertex="1" parent="1">
          <mxGeometry x="-1382" y="520" width="150" height="50" as="geometry" />
        </mxCell>
        <mxCell id="teVS5_G8p5La1gkVhsoy-14" value="loss函数" style="rounded=0;whiteSpace=wrap;html=1;" vertex="1" parent="1">
          <mxGeometry x="-1362" y="670" width="110" height="50" as="geometry" />
        </mxCell>
        <mxCell id="teVS5_G8p5La1gkVhsoy-15" style="edgeStyle=orthogonalEdgeStyle;rounded=0;orthogonalLoop=1;jettySize=auto;html=1;exitX=0.5;exitY=1;exitDx=0;exitDy=0;entryX=0.5;entryY=0;entryDx=0;entryDy=0;" edge="1" parent="1" source="teVS5_G8p5La1gkVhsoy-16" target="teVS5_G8p5La1gkVhsoy-14">
          <mxGeometry relative="1" as="geometry" />
        </mxCell>
        <mxCell id="teVS5_G8p5La1gkVhsoy-16" value="softmax多分类" style="rounded=0;whiteSpace=wrap;html=1;" vertex="1" parent="1">
          <mxGeometry x="-1362" y="600" width="110" height="40" as="geometry" />
        </mxCell>
        <mxCell id="teVS5_G8p5La1gkVhsoy-17" value="用户侧" style="rounded=0;whiteSpace=wrap;html=1;" vertex="1" parent="1">
          <mxGeometry x="-1342" y="330" width="30" height="60" as="geometry" />
        </mxCell>
        <mxCell id="teVS5_G8p5La1gkVhsoy-19" value="历史序列" style="rounded=0;whiteSpace=wrap;html=1;" vertex="1" parent="1">
          <mxGeometry x="-1297" y="330" width="30" height="60" as="geometry" />
        </mxCell>
        <mxCell id="teVS5_G8p5La1gkVhsoy-26" value="嵌入特征" style="rounded=0;whiteSpace=wrap;html=1;" vertex="1" parent="1">
          <mxGeometry x="-1382" y="312.5" width="58" height="15" as="geometry" />
        </mxCell>
        <mxCell id="teVS5_G8p5La1gkVhsoy-37" value="Add&amp;amp;Norm" style="rounded=0;whiteSpace=wrap;html=1;" vertex="1" parent="1">
          <mxGeometry x="-1580" y="217.5" width="110" height="40" as="geometry" />
        </mxCell>
        <mxCell id="teVS5_G8p5La1gkVhsoy-51" value="" style="edgeStyle=orthogonalEdgeStyle;rounded=0;orthogonalLoop=1;jettySize=auto;html=1;" edge="1" parent="1" source="teVS5_G8p5La1gkVhsoy-39" target="teVS5_G8p5La1gkVhsoy-37">
          <mxGeometry relative="1" as="geometry" />
        </mxCell>
        <mxCell id="teVS5_G8p5La1gkVhsoy-39" value="Dropout" style="rounded=0;whiteSpace=wrap;html=1;" vertex="1" parent="1">
          <mxGeometry x="-1580" y="287.5" width="110" height="50" as="geometry" />
        </mxCell>
        <mxCell id="teVS5_G8p5La1gkVhsoy-54" value="" style="edgeStyle=orthogonalEdgeStyle;rounded=0;orthogonalLoop=1;jettySize=auto;html=1;" edge="1" parent="1" source="teVS5_G8p5La1gkVhsoy-40" target="teVS5_G8p5La1gkVhsoy-39">
          <mxGeometry relative="1" as="geometry" />
        </mxCell>
        <mxCell id="teVS5_G8p5La1gkVhsoy-40" value="point-wise &lt;br&gt;feed-forward" style="rounded=0;whiteSpace=wrap;html=1;" vertex="1" parent="1">
          <mxGeometry x="-1580" y="370" width="110" height="40" as="geometry" />
        </mxCell>
        <mxCell id="teVS5_G8p5La1gkVhsoy-50" value="" style="edgeStyle=orthogonalEdgeStyle;rounded=0;orthogonalLoop=1;jettySize=auto;html=1;" edge="1" parent="1" source="teVS5_G8p5La1gkVhsoy-42" target="teVS5_G8p5La1gkVhsoy-40">
          <mxGeometry relative="1" as="geometry" />
        </mxCell>
        <mxCell id="teVS5_G8p5La1gkVhsoy-56" style="edgeStyle=orthogonalEdgeStyle;rounded=0;orthogonalLoop=1;jettySize=auto;html=1;entryX=0;entryY=0.5;entryDx=0;entryDy=0;" edge="1" parent="1" source="teVS5_G8p5La1gkVhsoy-42" target="teVS5_G8p5La1gkVhsoy-37">
          <mxGeometry relative="1" as="geometry">
            <mxPoint x="-1630" y="230" as="targetPoint" />
            <Array as="points">
              <mxPoint x="-1525" y="420" />
              <mxPoint x="-1620" y="420" />
              <mxPoint x="-1620" y="238" />
            </Array>
          </mxGeometry>
        </mxCell>
        <mxCell id="teVS5_G8p5La1gkVhsoy-42" value="Add&amp;amp;Norm" style="rounded=0;whiteSpace=wrap;html=1;" vertex="1" parent="1">
          <mxGeometry x="-1580" y="445" width="110" height="40" as="geometry" />
        </mxCell>
        <mxCell id="teVS5_G8p5La1gkVhsoy-49" value="" style="edgeStyle=orthogonalEdgeStyle;rounded=0;orthogonalLoop=1;jettySize=auto;html=1;" edge="1" parent="1" source="teVS5_G8p5La1gkVhsoy-44" target="teVS5_G8p5La1gkVhsoy-42">
          <mxGeometry relative="1" as="geometry" />
        </mxCell>
        <mxCell id="teVS5_G8p5La1gkVhsoy-44" value="Dropout" style="rounded=0;whiteSpace=wrap;html=1;" vertex="1" parent="1">
          <mxGeometry x="-1580" y="500" width="110" height="50" as="geometry" />
        </mxCell>
        <mxCell id="teVS5_G8p5La1gkVhsoy-53" value="" style="edgeStyle=orthogonalEdgeStyle;rounded=0;orthogonalLoop=1;jettySize=auto;html=1;" edge="1" parent="1" source="teVS5_G8p5La1gkVhsoy-45" target="teVS5_G8p5La1gkVhsoy-44">
          <mxGeometry relative="1" as="geometry" />
        </mxCell>
        <mxCell id="teVS5_G8p5La1gkVhsoy-45" value="Multi-head Attention" style="rounded=0;whiteSpace=wrap;html=1;" vertex="1" parent="1">
          <mxGeometry x="-1580" y="575" width="110" height="40" as="geometry" />
        </mxCell>
        <mxCell id="teVS5_G8p5La1gkVhsoy-48" value="" style="edgeStyle=orthogonalEdgeStyle;rounded=0;orthogonalLoop=1;jettySize=auto;html=1;" edge="1" parent="1" source="teVS5_G8p5La1gkVhsoy-47" target="teVS5_G8p5La1gkVhsoy-45">
          <mxGeometry relative="1" as="geometry" />
        </mxCell>
        <mxCell id="teVS5_G8p5La1gkVhsoy-55" style="edgeStyle=orthogonalEdgeStyle;rounded=0;orthogonalLoop=1;jettySize=auto;html=1;entryX=0;entryY=0.75;entryDx=0;entryDy=0;" edge="1" parent="1" source="teVS5_G8p5La1gkVhsoy-47" target="teVS5_G8p5La1gkVhsoy-42">
          <mxGeometry relative="1" as="geometry">
            <mxPoint x="-1610" y="440" as="targetPoint" />
            <Array as="points">
              <mxPoint x="-1525" y="640" />
              <mxPoint x="-1620" y="640" />
              <mxPoint x="-1620" y="475" />
            </Array>
          </mxGeometry>
        </mxCell>
        <mxCell id="teVS5_G8p5La1gkVhsoy-47" value="input" style="rounded=0;whiteSpace=wrap;html=1;" vertex="1" parent="1">
          <mxGeometry x="-1580" y="660" width="110" height="40" as="geometry" />
        </mxCell>
        <mxCell id="teVS5_G8p5La1gkVhsoy-57" style="edgeStyle=orthogonalEdgeStyle;rounded=0;orthogonalLoop=1;jettySize=auto;html=1;exitX=0.5;exitY=1;exitDx=0;exitDy=0;entryX=0.5;entryY=0;entryDx=0;entryDy=0;" edge="1" parent="1" source="teVS5_G8p5La1gkVhsoy-58" target="teVS5_G8p5La1gkVhsoy-68">
          <mxGeometry relative="1" as="geometry" />
        </mxCell>
        <mxCell id="teVS5_G8p5La1gkVhsoy-58" value="" style="rounded=0;whiteSpace=wrap;html=1;" vertex="1" parent="1">
          <mxGeometry x="-1092" y="980" width="150" height="87.5" as="geometry" />
        </mxCell>
        <mxCell id="teVS5_G8p5La1gkVhsoy-59" style="edgeStyle=orthogonalEdgeStyle;rounded=0;orthogonalLoop=1;jettySize=auto;html=1;entryX=0.5;entryY=0;entryDx=0;entryDy=0;" edge="1" parent="1" source="teVS5_G8p5La1gkVhsoy-60" target="teVS5_G8p5La1gkVhsoy-62">
          <mxGeometry relative="1" as="geometry" />
        </mxCell>
        <mxCell id="teVS5_G8p5La1gkVhsoy-60" value="开始" style="rounded=0;whiteSpace=wrap;html=1;" vertex="1" parent="1">
          <mxGeometry x="-1072" y="702.5" width="110" height="50" as="geometry" />
        </mxCell>
        <mxCell id="teVS5_G8p5La1gkVhsoy-61" style="edgeStyle=orthogonalEdgeStyle;rounded=0;orthogonalLoop=1;jettySize=auto;html=1;entryX=0.5;entryY=0;entryDx=0;entryDy=0;" edge="1" parent="1" source="teVS5_G8p5La1gkVhsoy-62" target="teVS5_G8p5La1gkVhsoy-64">
          <mxGeometry relative="1" as="geometry" />
        </mxCell>
        <mxCell id="teVS5_G8p5La1gkVhsoy-62" value="数据输入" style="rounded=0;whiteSpace=wrap;html=1;" vertex="1" parent="1">
          <mxGeometry x="-1072" y="772.5" width="110" height="40" as="geometry" />
        </mxCell>
        <mxCell id="teVS5_G8p5La1gkVhsoy-63" style="edgeStyle=orthogonalEdgeStyle;rounded=0;orthogonalLoop=1;jettySize=auto;html=1;exitX=0.5;exitY=1;exitDx=0;exitDy=0;entryX=0.5;entryY=0;entryDx=0;entryDy=0;" edge="1" parent="1" source="teVS5_G8p5La1gkVhsoy-64" target="teVS5_G8p5La1gkVhsoy-66">
          <mxGeometry relative="1" as="geometry" />
        </mxCell>
        <mxCell id="teVS5_G8p5La1gkVhsoy-64" value="特征构造" style="rounded=0;whiteSpace=wrap;html=1;" vertex="1" parent="1">
          <mxGeometry x="-1072" y="842.5" width="110" height="50" as="geometry" />
        </mxCell>
        <mxCell id="teVS5_G8p5La1gkVhsoy-65" style="edgeStyle=orthogonalEdgeStyle;rounded=0;orthogonalLoop=1;jettySize=auto;html=1;exitX=0.5;exitY=1;exitDx=0;exitDy=0;" edge="1" parent="1" source="teVS5_G8p5La1gkVhsoy-66">
          <mxGeometry relative="1" as="geometry">
            <mxPoint x="-1017" y="972.5" as="targetPoint" />
          </mxGeometry>
        </mxCell>
        <mxCell id="teVS5_G8p5La1gkVhsoy-66" value="嵌入编码" style="rounded=0;whiteSpace=wrap;html=1;" vertex="1" parent="1">
          <mxGeometry x="-1072" y="912.5" width="110" height="40" as="geometry" />
        </mxCell>
        <mxCell id="teVS5_G8p5La1gkVhsoy-67" style="edgeStyle=orthogonalEdgeStyle;rounded=0;orthogonalLoop=1;jettySize=auto;html=1;exitX=0.5;exitY=1;exitDx=0;exitDy=0;entryX=0.5;entryY=0;entryDx=0;entryDy=0;" edge="1" parent="1" source="teVS5_G8p5La1gkVhsoy-68" target="teVS5_G8p5La1gkVhsoy-70">
          <mxGeometry relative="1" as="geometry" />
        </mxCell>
        <mxCell id="teVS5_G8p5La1gkVhsoy-68" value="多头自注意力模块&lt;br&gt;（末位遮罩)" style="rounded=0;whiteSpace=wrap;html=1;" vertex="1" parent="1">
          <mxGeometry x="-1092" y="1107.5" width="150" height="50" as="geometry" />
        </mxCell>
        <mxCell id="teVS5_G8p5La1gkVhsoy-69" style="edgeStyle=orthogonalEdgeStyle;rounded=0;orthogonalLoop=1;jettySize=auto;html=1;entryX=0.5;entryY=0;entryDx=0;entryDy=0;" edge="1" parent="1" source="teVS5_G8p5La1gkVhsoy-70">
          <mxGeometry relative="1" as="geometry">
            <mxPoint x="-1017" y="1267.5" as="targetPoint" />
          </mxGeometry>
        </mxCell>
        <mxCell id="teVS5_G8p5La1gkVhsoy-70" value="&lt;span&gt;多层全连接MLP&lt;/span&gt;" style="rounded=0;whiteSpace=wrap;html=1;" vertex="1" parent="1">
          <mxGeometry x="-1092" y="1187.5" width="150" height="50" as="geometry" />
        </mxCell>
        <mxCell id="teVS5_G8p5La1gkVhsoy-71" value="softmax输出" style="rounded=0;whiteSpace=wrap;html=1;" vertex="1" parent="1">
          <mxGeometry x="-1072" y="1270" width="110" height="50" as="geometry" />
        </mxCell>
        <mxCell id="teVS5_G8p5La1gkVhsoy-74" value="用户侧" style="rounded=0;whiteSpace=wrap;html=1;" vertex="1" parent="1">
          <mxGeometry x="-1052" y="997.5" width="30" height="60" as="geometry" />
        </mxCell>
        <mxCell id="teVS5_G8p5La1gkVhsoy-75" value="历史序列" style="rounded=0;whiteSpace=wrap;html=1;" vertex="1" parent="1">
          <mxGeometry x="-1007" y="997.5" width="30" height="60" as="geometry" />
        </mxCell>
        <mxCell id="teVS5_G8p5La1gkVhsoy-76" value="嵌入特征" style="rounded=0;whiteSpace=wrap;html=1;" vertex="1" parent="1">
          <mxGeometry x="-1092" y="980" width="58" height="15" as="geometry" />
        </mxCell>
      </root>
    </mxGraphModel>
  </diagram>
</mxfile>
